<?xml version="1.0" encoding="utf-8"?>
<svg version="1.1" xmlns="http://www.w3.org/2000/svg" xmlns:xlink="http://www.w3.org/1999/xlink" x="0px" y="0px"
	 viewBox="-15 76 642 642" style="enable-background:new 0 0 612 792;" xml:space="preserve">
<style type="text/css">
	.a{fill:#78e076;stroke:#78e076;stroke-width:40px;	}
</style>
<g>
	<g>
		<path class="a" d="M592.3,467.3"/>
	</g>
	<g>
		<path class="a" d="M306,696C140.6,696,6,561.4,6,396S140.6,96,306,96c89.1,0,173,39.3,230.2,107.8c1.7,2,1.5,4.9-0.3,6.7
			L282.8,463.7c-11.5,11.5-30.3,11.5-41.8,0l-85.8-76.8c-2.1-1.8-2.2-5-0.4-7.1c1.8-2.1,5-2.2,7.1-0.4l86,76.9
			c7.8,7.8,20.3,7.8,27.9,0.2l249.9-249.9C470.4,142.6,390.6,106,306,106C146.1,106,16,236.1,16,396s130.1,290,290,290
			s290-130.1,290-290c0-42.5-9.3-83.9-27.7-123c-1.2-2.5-0.1-5.5,2.4-6.7c2.5-1.2,5.5-0.1,6.7,2.4C596.4,309.1,606,352,606,396
			C606,561.4,471.4,696,306,696z"/>
	</g>
</g>
</svg>
